<svg data-v-0dd9719b="" version="1.0" xmlns="http://www.w3.org/2000/svg" xmlns:xlink="http://www.w3.org/1999/xlink" width="100%" height="100%" viewBox="0 0 340.000000 250.000000" preserveAspectRatio="xMidYMid meet" color-interpolation-filters="sRGB" style="margin: auto;"> <rect data-v-0dd9719b="" x="0" y="0" width="100%" height="100%" fill="#fff" fill-opacity="1" class="background"></rect> <rect data-v-0dd9719b="" x="0" y="0" width="100%" height="100%" fill="url(#watermark)" fill-opacity="1" class="watermarklayer"></rect> <g data-v-0dd9719b="" fill="#333" class="icon-text-wrapper icon-svg-group iconsvg" transform="translate(48.269996643066406,94.31730842590332)"><g class="iconsvg-imagesvg" transform="translate(0,0)"><g><rect fill="#333" fill-opacity="0" stroke-width="2" x="0" y="0" width="60" height="61.36537969828688" class="image-rect"></rect> <svg x="0" y="0" width="60" height="61.36537969828688" filtersec="colorsb9728649098" class="image-svg-svg primary" style="overflow: visible;"><svg xmlns="http://www.w3.org/2000/svg" viewBox="-0.00251007080078125 0 143.63192749023438 146.89999389648438"><path d="M66.16 0v146.9c-4-.72-7.77-1.21-11.45-2.12a73.18 73.18 0 0 1-28.58-14.17 2.78 2.78 0 0 1-1.13-3.46c.86-2.73 1.5-5.53 2.38-8.87 8.26 7.76 17.28 13.36 28.21 16.22V12.17C44.59 15 35.43 20.7 27 28.78c-.91-3.74-1.75-7.09-2.49-10.46a1.81 1.81 0 0 1 .67-1.38A71.48 71.48 0 0 1 66.16 0z" fill="#fb941c"></path><path d="M116.63 28.89c-8.31-8.14-17.51-13.8-28.63-16.73v122.33c10.87-2.76 19.93-8.3 28.25-16.25 1 3.75 1.92 7 2.61 10.35.12.56-.76 1.49-1.38 2a71.37 71.37 0 0 1-30.89 14.7c-2.94.62-5.92 1-9.12 1.55V.06c1.66.15 3.23.21 4.77.45a73 73 0 0 1 35.55 15.74 3 3 0 0 1 1.21 3.49c-.83 2.89-1.53 5.81-2.37 9.15z" fill="#303e8f"></path><path d="M127.39 119.26c-1.17-3.42-2.13-6.63-3.35-9.75-4.45-11.42-11.48-20.65-22.83-26-2.3-1.09-4.82-1.69-7.15-2.74a3.06 3.06 0 0 1-1.61-2.1 71 71 0 0 1 0-8.63 2.7 2.7 0 0 1 1.43-2c17.77-5.11 27.11-18 32.17-34.79.52-1.74 1.09-3.46 1.68-5.33 20.81 24.7 21.7 65.08-.34 91.34zM129.05 96c5.68-8.65 6-36.51.18-44.47-5.11 9.52-11.9 17.37-21.1 22.45 4.08 3.45 8.22 6.39 11.64 10S126 92 129.05 96z" fill="#303e8f"></path><path d="M16.25 119.31C-5.59 93.18-5.11 53.1 15.83 27.89c1 3.22 2 6.32 3.07 9.37 3.55 10 8.86 18.88 18 24.75 3.71 2.39 8 4 12.09 5.65 1.62.65 2.3 1.31 2.22 3-.13 2.64.08 5.29-.11 7.91a2.92 2.92 0 0 1-1.56 2.14c-16 4.64-25.39 15.86-30.84 31-.44 1.2-.83 2.42-1.22 3.64s-.77 2.46-1.23 3.96zm-1.44-22.88c5-9.22 11.75-16.74 21.31-22.07C26.21 68.84 19.46 61 14.39 51.55c-5.76 8-5.51 35.93.42 44.88z" fill="#fb941c"></path></svg></svg> <!----></g></g> <g transform="translate(67.00000381469727,18.77269172668457)"><g data-gra="path-name" fill-rule="" class="tp-name iconsvg-namesvg"><g transform="scale(1)"><g><path d="M7.5 0L2.43 0 2.43-23.82 7.5-23.82 7.5 0ZM26.89 0L17.18-17.46 17.18 0 12.32 0 12.32-23.82 18.82-23.82 28.29-6.07 28.29-23.82 33.11-23.82 33.11 0 26.89 0ZM42.71-14.07L56.93-14.07 56.93-9.82 42.71-9.82 42.71 0 37.68 0 37.68-12.43Q37.71-17.79 38.68-19.46L38.68-19.46Q39.89-21.82 42.2-22.82 44.5-23.82 48.68-23.82L48.68-23.82 56.93-23.82 56.93-19.57 49.32-19.57Q45.79-19.5 44.79-19L44.79-19Q42.79-18.18 42.71-15.36L42.71-15.36 42.71-14.07ZM65.75 0L60.68 0 60.68-23.82 65.75-23.82 65.75 0ZM85.14 0L75.43-17.46 75.43 0 70.57 0 70.57-23.82 77.07-23.82 86.54-6.07 86.54-23.82 91.36-23.82 91.36 0 85.14 0ZM105.54-23.82L114.07-23.82 114.07-19.57 107.46-19.57Q104.89-19.57 103.71-19.21 102.54-18.86 101.75-17.82L101.75-17.82Q101.21-17.11 101.02-16.39 100.82-15.68 100.68-13.96L100.68-13.96 114.07-13.96 114.07-9.71 100.68-9.71Q100.96-6.64 102.5-5.45 104.04-4.25 107.71-4.25L107.71-4.25 114.07-4.25 114.07 0 107.46 0Q104.79 0 102.75-0.32L102.75-0.32Q99.54-0.86 97.64-3.14L97.64-3.14Q94.93-6.43 94.93-12.04L94.93-12.04Q94.93-18.25 98.75-21.71L98.75-21.71Q100.07-22.89 101.55-23.36 103.04-23.82 105.54-23.82L105.54-23.82ZM123.36 0L123.36-19.57 115.79-19.57 115.79-23.82 136.32-23.82 136.32-19.57 128.43-19.57 128.43 0 123.36 0ZM148.25-23.82L156.79-23.82 156.79-19.57 150.18-19.57Q147.61-19.57 146.43-19.21 145.25-18.86 144.46-17.82L144.46-17.82Q143.93-17.11 143.73-16.39 143.54-15.68 143.39-13.96L143.39-13.96 156.79-13.96 156.79-9.71 143.39-9.71Q143.68-6.64 145.21-5.45 146.75-4.25 150.43-4.25L150.43-4.25 156.79-4.25 156.79 0 150.18 0Q147.5 0 145.46-0.32L145.46-0.32Q142.25-0.86 140.36-3.14L140.36-3.14Q137.64-6.43 137.64-12.04L137.64-12.04Q137.64-18.25 141.46-21.71L141.46-21.71Q142.79-22.89 144.27-23.36 145.75-23.82 148.25-23.82L148.25-23.82ZM171.61-4.25L178.89-4.25 178.89 0 170.57 0Q168.21 0 166.96-0.25L166.96-0.25Q162.57-1.11 160.71-5.14L160.71-5.14Q159.5-7.86 159.5-11.86L159.5-11.86Q159.5-16.64 161.36-19.64L161.36-19.64Q162.71-21.82 164.98-22.82 167.25-23.82 170.82-23.82L170.82-23.82 178.89-23.82 178.89-19.57 171.39-19.57Q168-19.57 166.43-17.75L166.43-17.75Q165.11-16.25 165.11-12.32L165.11-12.32Q165.11-7.04 167.14-5.39L167.14-5.39Q168.57-4.25 171.61-4.25L171.61-4.25Z" transform="translate(-2.430000066757202, 23.81999969482422)"></path></g> <!----> <!----> <!----> <!----> <!----> <!----> <!----></g></g> <!----></g></g><defs v-gra="od"></defs></svg>